<svg xmlns="http://www.w3.org/2000/svg" viewBox="0 0 1600 900">
  <!-- Definitions for patterns and filters -->
  <defs>
    <!-- Dark wooden texture for desk -->
    <pattern id="woodPattern" patternUnits="userSpaceOnUse" width="100" height="100" patternTransform="rotate(45)">
      <rect width="100" height="100" fill="#2a1a0a"/>
      <line x1="0" y1="0" x2="100" y2="0" stroke="#3a2a1a" stroke-width="10" />
      <line x1="0" y1="20" x2="100" y2="20" stroke="#352218" stroke-width="8" />
      <line x1="0" y1="40" x2="100" y2="40" stroke="#3a2a1a" stroke-width="12" />
      <line x1="0" y1="60" x2="100" y2="60" stroke="#2c1c0c" stroke-width="14" />
      <line x1="0" y1="80" x2="100" y2="80" stroke="#352218" stroke-width="10" />
    </pattern>
    
    <!-- Paper texture -->
    <pattern id="paperTexture" patternUnits="userSpaceOnUse" width="50" height="50">
      <rect width="50" height="50" fill="#f0f0f8"/>
      <rect width="50" height="50" fill="#e6e6f0" opacity="0.3"/>
    </pattern>
    
    <!-- Blue overlay for tint -->
    <filter id="blueishTint">
      <feColorMatrix type="matrix" values="0.9 0 0 0 0
                                          0 0.95 0 0 0
                                          0 0 1.1 0 0
                                          0 0 0 1 0"/>
    </filter>
    
    <!-- Shadow effect -->
    <filter id="shadow" x="-20%" y="-20%" width="140%" height="140%">
      <feGaussianBlur in="SourceAlpha" stdDeviation="5" result="blur"/>
      <feOffset in="blur" dx="3" dy="3" result="offsetBlur"/>
      <feComponentTransfer in="offsetBlur" result="darkerBlur">
        <feFuncA type="linear" slope="0.4"/>
      </feComponentTransfer>
      <feMerge>
        <feMergeNode in="darkerBlur"/>
        <feMergeNode in="SourceGraphic"/>
      </feMerge>
    </filter>
  </defs>
  
  <!-- Main desk surface -->
  <rect x="50" y="50" width="1500" height="800" rx="10" ry="10" fill="url(#woodPattern)" filter="url(#blueishTint)"/>
  
  <!-- ALL WHITE PAPERS AND GRAPHS MOVED TO UPPER HALF -->
  
  <!-- Papers/documents with data - MOVED TO UPPER HALF -->
  <g filter="url(#shadow)">
    <!-- Paper 1 - slightly angled -->
    <rect x="220" y="100" width="280" height="320" transform="rotate(-5 220 100)" fill="url(#paperTexture)" filter="url(#blueishTint)"/>
    
    <!-- Report content -->
    <g transform="rotate(-5 220 100)">
      <rect x="240" y="130" width="240" height="15" fill="#3b5998" opacity="0.7"/>
      <rect x="240" y="160" width="180" height="8" fill="#2c3e66" opacity="0.6"/>
      <rect x="240" y="180" width="220" height="8" fill="#2c3e66" opacity="0.6"/>
      <rect x="240" y="200" width="200" height="8" fill="#2c3e66" opacity="0.6"/>
      
      <!-- Data table -->
      <rect x="240" y="230" width="240" height="100" fill="#e0e4ff" opacity="0.5"/>
      <line x1="240" y1="250" x2="480" y2="250" stroke="#3b5998" stroke-width="1" opacity="0.5"/>
      <line x1="240" y1="270" x2="480" y2="270" stroke="#3b5998" stroke-width="1" opacity="0.5"/>
      <line x1="240" y1="290" x2="480" y2="290" stroke="#3b5998" stroke-width="1" opacity="0.5"/>
      <line x1="240" y1="310" x2="480" y2="310" stroke="#3b5998" stroke-width="1" opacity="0.5"/>
      <line x1="300" y1="230" x2="300" y2="330" stroke="#3b5998" stroke-width="1" opacity="0.5"/>
      <line x1="360" y1="230" x2="360" y2="330" stroke="#3b5998" stroke-width="1" opacity="0.5"/>
      <line x1="420" y1="230" x2="420" y2="330" stroke="#3b5998" stroke-width="1" opacity="0.5"/>
      
      <!-- Bar chart -->
      <rect x="250" y="350" width="25" height="50" fill="#3b5998" opacity="0.7"/>
      <rect x="290" y="350" width="25" height="30" fill="#3b5998" opacity="0.7"/>
      <rect x="330" y="350" width="25" height="55" fill="#3b5998" opacity="0.7"/>
      <rect x="370" y="350" width="25" height="25" fill="#3b5998" opacity="0.7"/>
      <rect x="410" y="350" width="25" height="40" fill="#3b5998" opacity="0.7"/>
    </g>
    
    <!-- Paper 2 - Removed the zigzag line chart sheet -->
    <rect x="900" y="100" width="300" height="200" fill="url(#paperTexture)" filter="url(#blueishTint)"/>
    
    <!-- Paper 2 content - scatter plot -->
    <g>
      <!-- Axes -->
      <line x1="930" y1="250" x2="930" y2="130" stroke="#2c3e66" stroke-width="2"/>
      <line x1="930" y1="250" x2="1170" y2="250" stroke="#2c3e66" stroke-width="2"/>
      
      <!-- Data points -->
      <circle cx="960" cy="200" r="4" fill="#4865b3"/>
      <circle cx="990" cy="170" r="4" fill="#4865b3"/>
      <circle cx="1020" cy="220" r="4" fill="#4865b3"/>
      <circle cx="1050" cy="150" r="4" fill="#4865b3"/>
      <circle cx="1080" cy="190" r="4" fill="#4865b3"/>
      <circle cx="1110" cy="140" r="4" fill="#4865b3"/>
      <circle cx="1140" cy="200" r="4" fill="#4865b3"/>
      
      <!-- Trend line -->
      <line x1="945" y1="210" x2="1155" y2="160" stroke="#3b5998" stroke-width="1.5" stroke-dasharray="5,3"/>
      
      <!-- Title and labels -->
      <rect x="930" y="120" width="240" height="12" fill="#3b5998" opacity="0.7"/>
      <rect x="910" y="190" width="15" height="8" fill="#2c3e66" opacity="0.6"/>
      <rect x="1050" y="260" width="25" height="8" fill="#2c3e66" opacity="0.6"/>
    </g>
  </g>
  
  <!-- Sticky notes - MOVED UP -->
  <g filter="url(#shadow)">
    <rect x="600" y="120" width="100" height="100" fill="#e6e6fa" opacity="0.9" filter="url(#blueishTint)"/>
    <line x1="615" y1="150" x2="685" y2="150" stroke="#3b5998" stroke-width="2" opacity="0.8"/>
    <line x1="615" y1="165" x2="675" y2="165" stroke="#3b5998" stroke-width="2" opacity="0.8"/>
    <line x1="615" y1="180" x2="680" y2="180" stroke="#3b5998" stroke-width="2" opacity="0.8"/>
    <line x1="615" y1="195" x2="665" y2="195" stroke="#3b5998" stroke-width="2" opacity="0.8"/>
  </g>
  
  <!-- ITEMS IN LOWER HALF OF DESK -->
  
  <!-- Laptop - moved to lower half -->
  <g filter="url(#shadow)">
    <rect x="600" y="500" width="400" height="300" rx="15" ry="15" fill="#1a1a2e"/>
    <rect x="615" y="515" width="370" height="240" fill="#101628"/>
    <rect x="615" y="515" width="370" height="240" fill="#214080" opacity="0.15"/>
    
    <!-- Screen content: data visualizations -->
    <!-- Graph -->
    <polyline points="640,650 690,620 740,640 790,590 840,575 890,605 940,560" 
              stroke="#4287f5" stroke-width="3" fill="none"/>
    
    <!-- Bar chart -->
    <rect x="640" y="680" width="20" height="50" fill="#6aa2f7"/>
    <rect x="680" y="680" width="20" height="30" fill="#6aa2f7"/>
    <rect x="720" y="680" width="20" height="60" fill="#6aa2f7"/>
    <rect x="760" y="680" width="20" height="40" fill="#6aa2f7"/>
    <rect x="800" y="680" width="20" height="50" fill="#6aa2f7"/>
    
    <!-- Pie chart -->
    <path d="M910 600 L910 550 A50 50 0 0 1 950 580 Z" fill="#6aa2f7"/>
    <path d="M910 600 L950 580 A50 50 0 0 1 930 640 Z" fill="#339af0"/>
    <path d="M910 600 L930 640 A50 50 0 1 1 870 580 Z" fill="#1c7ed6"/>
    <path d="M910 600 L870 580 A50 50 0 0 1 910 550 Z" fill="#2d6dcc"/>
    
    <!-- Laptop keyboard (simplified) -->
    <rect x="615" y="755" width="370" height="30" fill="#151b30"/>
    <rect x="715" y="765" width="170" height="15" rx="8" ry="8" fill="#0f1525"/>
  </g>
  
  <!-- Coffee mug - lower half -->
  <g filter="url(#shadow)">
    <ellipse cx="300" cy="650" rx="50" ry="50" fill="#2c3e66"/>
    <ellipse cx="300" cy="650" rx="42" ry="42" fill="#192040"/>
    <path d="M350 650 A50 50 0 0 1 342 680 L370 675 A16 16 0 0 0 380 650 A16 16 0 0 0 370 625 L342 620 A50 50 0 0 1 350 650" fill="#2c3e66"/>
  </g>
  
  <!-- Pen/pencil - in lower half -->
  <g filter="url(#shadow)">
    <rect x="1200" y="600" width="8" height="150" transform="rotate(30 1200 600)" fill="#1a2856"/>
    <polygon points="1200,600 1206,594 1214,602 1208,608" fill="#4d5e8c" transform="rotate(30 1200 600)"/>
  </g>
  
  <!-- Mouse - in lower half -->
  <g filter="url(#shadow)">
    <path d="M1100,550 L1160,550 Q1190,550 1190,580 L1190,630 Q1190,650 1170,650 L1090,650 Q1070,650 1070,630 L1070,580 Q1070,550 1100,550" fill="#192040"/>
    <line x1="1130" y1="550" x2="1130" y2="580" stroke="#2c3e66" stroke-width="1.5"/>
  </g>
  
  <!-- Add a very subtle blue overlay to entire image -->
  <rect x="0" y="0" width="1600" height="900" fill="#0000ff" opacity="0.03"/>
</svg>
